<?xml version="1.0" encoding="utf-8"?>
<!-- Generator: Adobe Illustrator 28.0.0, SVG Export Plug-In . SVG Version: 6.00 Build 0)  -->
<svg version="1.1" id="Layer_1" xmlns="http://www.w3.org/2000/svg" xmlns:xlink="http://www.w3.org/1999/xlink" x="0px" y="0px"
	 viewBox="0 0 150 150" style="enable-background:new 0 0 150 150;" xml:space="preserve">
<style type="text/css">
	.st0{fill:#1D1D1B;}
</style>
<path class="st0" d="M123.44,60.52c-0.36-6.65-0.66-14.83-5.93-19.66c-3.07-2.81-7.12-4.58-11.23-5.41
	c-0.24-2.06-0.64-4.12-1.09-6.13c-0.64-2.82-1.46-5.59-2.46-8.3c-0.83-2.24-1.78-4.4-3.56-6.06c-3.57-3.32-9-3.9-13.68-2.76
	c-2.09-3.7-5.54-6.77-9.76-7.5c-4.82-0.83-10.38,0.91-13.78,4.58c-2.64-1.05-5.61-1.09-8.42-0.56c-3.56,0.67-7.53,2.14-9.31,5.52
	c-1.14,2.16-1.57,4.67-1.57,7.2c-1.53-0.24-3.2-0.15-4.91,0.09c-4,0.56-8.39,1.93-10.35,5.81c-1.63,3.24-0.9,7.46-0.73,10.96
	c0.23,4.97,0.46,9.93,0.58,14.9c0.22,9.31,0.75,18.56,2.08,27.78c0.61,4.23,1.36,8.47,2.55,12.58c1.09,3.78,2.59,7.46,4.03,11.11
	c2.3,5.85,4.72,11.65,7.21,17.42c-1.18,3.83-1.98,8.27-0.56,12.09c1.4,3.77,4.64,5.36,8.29,6.34c7.87,2.11,16.43,2.9,24.56,2.93
	c3.58,0.01,7.16,0.22,10.75-0.03c4.72-0.33,9.36-1.31,13.81-2.92c3.75-1.36,7.3-3.26,9.02-7.07c1.26-2.8,1.3-5.86,0.7-8.82
	c-0.25-1.25-0.64-2.51-1.14-3.7c4.22-7.27,8.12-14.78,11.07-22.66c1.95-5.23,3.45-10.69,3.72-16.3
	C123.65,74.83,123.82,67.66,123.44,60.52z M118.14,82.1c-0.43,8.42-4.18,17.25-8,24.98c-1.5,3.04-3.1,6.02-4.77,8.97
	c-0.82,1.44-2.53,3.37-2.29,5.09c0.06,0.48,0.27,0.86,0.46,1.28c0.08,0.17,0.15,0.33,0.22,0.5c0.02,0.05,0.04,0.12,0.08,0.21
	c0.23,0.65,0.46,1.3,0.63,1.98c0.38,1.46,0.58,2.77,0.37,4.29c-0.77,5.58-8.1,7.05-12.81,8.07c-5.53,1.19-11.05,0.88-16.66,0.86
	c-5.11-0.02-10.25-0.46-15.3-1.2c-2.46-0.36-4.93-0.79-7.34-1.4c-1.73-0.44-3.54-0.71-4.66-2c-1.39-1.61-1.24-4.23-0.97-6.18
	c0.31-2.21,1.82-4.8,0.91-6.93c-1.17-2.74-2.34-5.48-3.49-8.23c-3.95-9.51-7.95-18.95-9.69-29.15c-2.02-11.81-2.19-23.69-2.63-35.62
	c-0.12-3.32-0.29-6.64-0.44-9.96c-0.1-2.17-0.47-4.6-0.17-6.76c0.35-2.57,3.09-3.54,5.3-4c1.42-0.29,5.6-1.43,6.42,0.43
	c1.18,10.99,2.35,22,3.02,33.03c0.2,3.29,5.36,3.32,5.15,0c-0.69-11.24-1.89-22.47-3.09-33.67c0-0.02-0.01-0.04-0.01-0.06
	c-0.01-0.2-0.03-0.4-0.08-0.62c-0.29-1.24-0.3-1.46-0.39-2.6c-0.16-1.95-0.2-4.04,0.48-5.91c0.84-2.3,3.14-2.96,5.41-3.53
	c2.14-0.54,4.38-0.63,6.37,0.23c0.64,10.14,1.32,20.29,2.12,30.42c0.26,3.25,0.53,6.49,0.87,9.73c0.15,1.38,1.08,2.58,2.58,2.58
	c1.28,0,2.72-1.18,2.58-2.58c-1.32-12.58-2.03-25.23-2.84-37.85c-0.07-1.04-0.13-2.09-0.2-3.13c0.52-0.56,1.04-1.13,1.65-1.59
	c2.16-1.62,5.15-2.47,7.83-1.99c2.15,0.38,3.98,1.85,5.24,3.49c0.53,0.69,0.98,1.45,1.37,2.22c0.06,0.11,0.11,0.22,0.16,0.33
	c-0.44,12.75-0.7,25.61,0.19,38.34c0.23,3.29,5.38,3.32,5.15,0c-0.85-12.25-0.65-24.63-0.24-36.91c3.09-0.78,6.75-0.79,9.13,1.63
	c1.42,1.44,1.99,3.49,2.62,5.35c0.77,2.28,1.41,4.61,1.93,6.96c0.42,1.94,0.75,3.6,0.91,5.41c-2.65,2.7-3.77,7.15-4.62,10.6
	c-1.94,7.89-2.75,16.09-3.39,24.19c-10.37,3.24-18.5,12.65-21.19,22.96c-0.84,3.21,4.13,4.58,4.97,1.37
	c1.72-6.6,5.61-12.31,11.32-16.09c1.01-0.67,2.07-1.29,3.15-1.84c0.48-0.25,0.97-0.48,1.46-0.71c0.07-0.03,0.41-0.18,0.49-0.21
	c0.12-0.05,0.25-0.1,0.37-0.15c0.83-0.32,1.67-0.63,2.54-0.84c1.16-0.28,1.81-1.37,1.89-2.48c0.63-8.19,1.36-16.48,3.28-24.48
	c0.3-1.25,0.63-2.5,1.03-3.72c0.17-0.52,0.35-1.04,0.54-1.56c0.07-0.19,0.15-0.39,0.23-0.58c0.04-0.09,0.14-0.33,0.17-0.38
	c0.35-0.74,0.74-1.43,1.18-2.12c0.02-0.03,0.04-0.06,0.06-0.09c0.02-0.02,0.03-0.04,0.04-0.05c0.23,0.05,0.47,0.09,0.7,0.15
	c1.57,0.36,3.13,0.84,4.59,1.52c1.77,0.83,3.44,1.89,4.74,3.37c1.42,1.62,1.98,3.59,2.41,5.65c1.11,5.23,1.24,10.68,1.28,16
	C118.52,72.09,118.4,77.1,118.14,82.1z"/>
</svg>
