<?xml version="1.0" encoding="utf-8"?>
<!-- Generator: Adobe Illustrator 28.0.0, SVG Export Plug-In . SVG Version: 6.00 Build 0)  -->
<svg version="1.1" id="Layer_1" xmlns="http://www.w3.org/2000/svg" xmlns:xlink="http://www.w3.org/1999/xlink" x="0px" y="0px"
	 viewBox="0 0 150 150" style="enable-background:new 0 0 150 150;" xml:space="preserve">
<style type="text/css">
	.st0{fill:#1D1D1B;}
</style>
<g>
	<path class="st0" d="M121.07,114.06c6.28-10.26,16.51-17.81,17.95-30.54c0.48-4.27-0.36-8.65-0.87-12.88
		c-0.82-6.9-1.3-13.99-2.71-20.8c-1.02-4.92-3.14-9.16-7.55-11.81c-3.63-2.18-7.86-3.5-12.02-4.44c-0.6-3.44-1.16-6.89-1.69-10.34
		c-0.68-4.4-1.06-9.21-4.32-12.6c-2.91-3.02-7.24-3.91-11.23-4.46c-5.51-0.75-11.23-1.14-16.5,0.98c-1.78,0.72-3.55,1.67-5.02,2.95
		c-6.54-2.41-14.55-0.9-20.88,1.26c-3.81,1.3-7.57,3.61-9.81,7.02c-5.35,0.63-10.86,1.88-15.59,4.37
		c-5.87,3.09-9.11,9.54-8.79,16.02c-2.72,1.75-5.18,4.05-7.04,6.64c-3.71,5.17-4.58,13.18-4,19.35c0.6,6.4,3.23,11.64,7.05,16.7
		c1.03,1.36,2.1,2.69,3.19,4c0,0,0,0.01,0.01,0.01c0.25,0.34,0.53,0.67,0.82,0.98c0.43,0.5,0.86,1,1.29,1.5
		c0.61,0.69,1.22,1.38,1.83,2.07c0.21,0.24,0.42,0.49,0.63,0.73c0.02,0.03,0.04,0.04,0.06,0.06c4.53,6.35,8.85,12.91,13,19.51
		c1.42,2.25,2.66,4.89,1.72,7.57c-0.64,1.83-1.53,3.47-1.86,5.41c-1.04,6.16,2.26,11.7,7.14,15.28c4.81,3.53,11.16,4.63,16.96,5.26
		c5.98,0.66,12,0.58,18,0.46c7.42-0.16,14.87-0.64,22.16-2.08c5.96-1.18,13.37-2.66,17.12-7.92c2.64-3.7,2.74-8.61,1.67-12.87
		c-0.21-0.82-0.47-1.63-0.78-2.43c-0.23-0.58-0.61-2.04-1.12-2.57c0.01-0.03,0.02-0.05,0.03-0.09
		C120.12,115.68,120.58,114.85,121.07,114.06z M82.41,14.1c0.41-0.25,0.83-0.49,1.26-0.7c0.81-0.39,1.68-0.67,2.55-0.9
		c3.2-0.83,6.5-0.63,9.76-0.28c2.37,0.25,4.86,0.55,7.08,1.44c1.3,0.52,2.31,1.29,2.89,2.28c0.99,1.7,1.34,4.06,1.67,6.24
		c0.6,3.99,1.22,7.97,1.91,11.95c-5.44,2.95-11.5,4.48-17.67,4.74c-2.35,0.1-4.88,0.1-7.21,0.7c-2.58-3.88-4.34-8.42-5.53-12.87
		c-0.29-1.09-0.59-2.22-0.72-3.34c-0.04-0.34-0.04-0.75-0.06-1.13c-0.01-0.12,0.05-0.66,0.04-0.65c0.39-2.01,1.3-4.13,2.2-5.96
		c0.37-0.33,0.7-0.7,1.08-1.02C81.71,14.59,82.33,14.15,82.41,14.1z M58.58,17.31c4.42-1.36,10.25-2.9,15.05-1.66
		c-0.58,1.43-1.08,2.91-1.41,4.37c-0.54,2.42-0.06,5,0.51,7.37c1.28,5.35,3.43,11.03,6.58,15.63c-1.43,1.92-2.17,4.35-2.86,6.69
		c-0.98,3.34-1.73,6.83-2.03,10.32c-4.17,1.18-8.63-4.21-10.8-6.95c-2.82-3.57-5.28-7.53-7.7-11.38c-2.16-3.45-4.54-7.07-5.83-10.96
		c-0.76-2.27-0.38-5.58,1.02-7.74c0.02-0.03,0.33-0.64,0.49-0.91c0.43-0.73,0.29-0.5,0.98-1.23C54.21,19.13,56.32,18,58.58,17.31z
		 M29,34.07c1.01-3.19,3.38-5.15,6.35-6.43c2.58-1.11,5.37-1.79,8.12-2.33c-1.09,7.25,3.74,14.58,7.58,20.61
		c3.96,6.23,9.74,16.29,17.3,19.5c-1.63,2.65-3.6,5.5-5.62,6.68c-1.8,1.05-5.67,1.45-8.13,0.82c-0.79-0.2-1.52-0.48-2.23-0.88
		c-0.32-0.18-0.62-0.38-0.92-0.59c-0.01-0.01-0.01-0.01-0.02-0.02c-0.52-0.49-1.02-1-1.5-1.53c-6.27-7.03-11.58-15.59-16.91-23.6
		c-1.54-2.31-3.07-4.63-4.57-6.96c-0.03-0.34-0.05-0.69-0.06-1.03C28.38,36.85,28.57,35.46,29,34.07z M19.11,51.01
		c1.02-2.46,3.08-4.56,5.34-6.17c4.03,6.18,8.16,12.31,12.42,18.34c2.85,4.02,5.69,8.2,9.08,11.79c0.63,0.66,1.3,1.25,2.02,1.76
		c-0.34,0.39-0.69,0.78-1.04,1.16c-1.88,2.03-3.93,4.03-6.38,5.37c-2.39,1.3-5.26,1.45-7.91,1.14c-1.44-0.17-4.01-0.67-5.32-1.59
		c-3.02-3.54-6.03-7.07-8.11-11.27C16.27,65.59,16.6,57.08,19.11,51.01z M117.46,108.08c-2.28,3.09-5.23,7.27-3.32,11.21
		c1.15,2.37,2.24,5.2,1.89,8.28c-0.65,5.7-7.43,6.86-12.08,7.96c-7.57,1.79-15.35,2.26-23.1,2.43c-4.84,0.1-9.67,0.17-14.5-0.15
		c-4.8-0.32-9.96-0.9-14.35-2.99c-3.74-1.77-7.65-5.51-7.06-10.01c0.26-1.97,0.96-2.99,1.62-4.69c1.15-2.99,0.9-6.32-0.25-9.27
		c-1.43-3.65-3.98-6.94-6.13-10.2c-2.14-3.24-4.29-6.48-6.47-9.69c2.82,0.09,5.6-0.33,7.89-1.2c5.07-1.93,9.22-6.2,12.53-10.48
		c3.37,0.62,6.98,0.25,10.21-0.95c3.25-1.21,5.37-4.04,7.38-6.74c1.1-1.47,2.14-3,3.11-4.56c0.43,1.47,1.16,2.84,2.34,4.03
		c1.41,1.41,3.09,2.53,4.92,3.43c-4.7,3.58-9.04,7.91-11.2,13.3c-1.7,4.22-2.49,8.85-2.8,13.37c-0.27,3.98-0.21,8.57,1.84,12.13
		c2.05,3.55,7.56,0.35,5.5-3.22c-1.31-2.28-1.16-6.27-0.95-9.18c0.28-3.82,1-7.88,2.55-11.4c2.29-5.22,7.69-9.29,12.43-12.44
		c1.03,0.25,2.04,0.46,3.03,0.64c5.11,0.97,10.23,1.9,15.34,2.83c4.01,0.73,5.73-5.41,1.69-6.14c-3.93-0.71-7.85-1.43-11.77-2.16
		c-4.47-0.83-9.03-1.54-13.12-3.66c-2.29-1.19-3.83-2.26-3.95-4.83c-0.16-3.32,0.46-6.66,1.26-9.86c0.56-2.26,1.08-6.75,3.5-7.84
		c2.45-1.11,5.67-0.7,8.28-0.86c6.7-0.42,13.44-2.39,19.33-5.68c3.53,0.74,7.18,1.69,10.37,3.34c3.04,1.58,4.46,3.21,5.43,6.76
		c1.66,6.08,1.93,12.66,2.68,18.9c0.49,4.07,1.27,8.24,1.28,12.34C132.84,91.81,123.49,99.87,117.46,108.08z"/>
</g>
</svg>
