<?xml version="1.0" encoding="utf-8"?>
<!-- Generator: Adobe Illustrator 28.0.0, SVG Export Plug-In . SVG Version: 6.00 Build 0)  -->
<svg version="1.1" id="Layer_1" xmlns="http://www.w3.org/2000/svg" xmlns:xlink="http://www.w3.org/1999/xlink" x="0px" y="0px"
	 viewBox="0 0 150 150" style="enable-background:new 0 0 150 150;" xml:space="preserve">
<style type="text/css">
	.st0{fill:#1D1D1B;}
</style>
<g>
	<path class="st0" d="M119.25,64.37c-1.85-3.81-4.22-7.51-6.99-10.76c0.82-9.26,1.66-18.51,2.31-27.78c0.42-6-0.71-12.29-6.42-15.47
		c-5.42-3.02-13.64-3.34-18.71,0.63c-1.17-4.27-4.95-6.56-9.22-7.28c-4.87-0.82-10.46-0.76-14.16,3.02
		c-2.87,2.93-3.28,6.82-3.74,10.68c-0.45,3.71-0.86,7.42-1.28,11.14c-0.67,5.97-1.33,11.94-1.98,17.92
		c-3.68,0.69-7.59,1.92-10.51,4.12c-2.48,1.88-4.38,4.48-5.74,7.29c-3.87,0.66-7.77,2.19-10.61,4.88c-2.9,2.74-4.77,7.45-5.15,11.39
		c-0.23,2.31,0.01,4.64,0.29,6.94c0.47,3.89,1.04,7.79,1.77,11.64c1.42,7.47,3.71,14.78,6.26,21.94c1.38,3.88,2.86,7.74,4.46,11.53
		c-1.35,5.54-2.37,12.17,3.19,15.68c2.56,1.62,5.84,2.51,8.76,3.19c4.37,1.03,8.89,1.39,13.36,1.53c6.63,0.2,13.31,0.25,19.91-0.47
		c3.74-0.41,7.49-0.96,11.12-1.99c2.97-0.84,6.17-1.99,8.41-4.2c3.93-3.88,4.12-10.37,2.81-15.56c2.25-2.77,4.38-5.67,6.3-8.67
		c2.68-4.19,4.3-8.68,5.68-13.43c1.78-6.16,3.15-12.51,3.6-18.91C123.42,76.66,122.18,70.41,119.25,64.37z M91.66,16.18
		c0.22-0.29,1.04-1.08,1.58-1.42c0.97-0.61,2.04-0.97,3.18-1.16c2.73-0.46,6-0.12,8.52,1.06c4.51,2.11,4.63,6.96,4.32,11.31
		c-0.36,5.1-0.8,10.2-1.23,15.29c-0.24,2.79-0.48,5.58-0.72,8.36c-1.9-1.02-3.97-1.79-5.94-2.42c-3.63-1.15-7.29-1.6-11.03-0.75
		c-0.21,0.05-0.42,0.1-0.63,0.16c0.05-4.42,0.1-8.83,0.14-13.25C89.88,29.27,90.6,17.57,91.66,16.18z M67.07,22.03
		c0.29-2.56,0.5-5.66,0.99-7.91c0.9-4.13,4.02-5.72,8.07-5.57c3.34,0.12,7.59,0.63,8.32,4.37c0.47,2.39,0.13,15.8,0.1,19.27
		c-0.05,5.71-0.11,11.43-0.18,17.14c-2.15,1.77-3.66,4.15-4.54,6.84c-1.23-1.61-2.57-3.13-4.1-4.4c-3.19-2.65-7.22-4.59-11.37-5.36
		c0.46-4.26,0.93-8.52,1.4-12.78C66.19,29.76,66.63,25.9,67.07,22.03z M52.07,54.56c2.69-1.78,6.24-2.66,9.45-3.17
		c0.21,0.01,0.42,0.04,0.62,0.05c0.01,0,0.02,0,0.04,0c0.1,0.01,0.19,0.03,0.29,0.04c0.47,0.08,0.93,0.17,1.4,0.27
		c2.11,0.48,4.12,1.23,5.99,2.32c4.94,2.89,8.1,8.31,10.97,13.09c1.4,2.34,2.73,4.72,3.97,7.14c0.44,0.85,0.86,1.7,1.27,2.56
		c0.15,0.32,0.31,0.65,0.46,0.98c0.19,0.42,0.22,0.53,0.24,0.6c0.63,1.94,0.61,4.18-0.58,5.92c-1,1.47-2.73,2.32-4.31,2.85
		c-4.94,1.67-10.23,0.65-13.51-3.61c-1.23-2.42-2.84-4.72-4.32-6.96c-1.72-2.6-3.48-5.18-5.31-7.7c-2.97-4.09-6.43-7.13-10.65-9.71
		c0.11-0.19,0.22-0.38,0.33-0.57C49.37,57.09,50.53,55.57,52.07,54.56z M32.96,71.73c0.06-0.17,0.13-0.34,0.19-0.51
		c0.01-0.03,0.02-0.05,0.02-0.06c0.01-0.01,0.01-0.02,0.01-0.03c0.16-0.37,0.33-0.73,0.51-1.1c0.42-0.89,0.81-1.86,1.41-2.64
		c1.46-1.9,3.84-2.98,6.07-3.67c0.92-0.28,1.87-0.51,2.82-0.69c0.03-0.01,0.06-0.01,0.09-0.01c2.29,1.27,4.53,2.66,6.46,4.43
		c0.54,0.5,1.06,1.02,1.56,1.57c0.18,0.19,0.35,0.39,0.53,0.58c0.09,0.1,0.17,0.21,0.26,0.32c0.02,0.02,0.04,0.04,0.05,0.06
		c0.01,0.01,0.01,0.02,0.02,0.03c3.18,4.13,6.08,8.52,8.83,12.94c0.54,0.86,1.14,1.76,1.66,2.69c0.06,0.21,0.16,0.42,0.3,0.6
		c0.01,0.01,0.02,0.03,0.03,0.04c0.67,1.38,1.07,2.83,0.7,4.39c-0.59,2.42-2.65,4.26-4.95,5.02c-3.08,1.02-6.55,1.16-9.74,0.61
		c-2.73-0.47-4.88-1.51-7.15-3.05c-3.4-2.33-6.54-5.13-9.44-8.06c-0.1-0.65-0.21-1.3-0.3-1.96C32.33,79.09,31.8,75.18,32.96,71.73z
		 M114.73,99.12c-1.39,5.11-2.98,9.83-5.88,14.3c-1.46,2.24-3.03,4.41-4.68,6.51c-1.05,1.34-2.65,2.71-2.27,4.56
		c0.68,3.35,1.67,7.01-0.09,10.34c-1.11,2.11-3.49,3.05-5.64,3.76c-2.86,0.95-5.85,1.52-8.83,1.95c-5.14,0.73-10.29,0.85-15.47,0.83
		c-7.29-0.03-14.64-0.04-21.67-2.24c-1.02-0.32-2.05-0.63-3.03-1.05c-0.11-0.05-0.72-0.34-1-0.5c-0.2-0.11-0.39-0.23-0.59-0.35
		c-0.22-0.14-0.25-0.15-0.26-0.15c0,0,0-0.02-0.13-0.13c-0.12-0.11-0.24-0.22-0.35-0.34c-0.05-0.05-0.08-0.08-0.11-0.11
		c0,0,0-0.01-0.01-0.01c-0.08-0.11-0.43-0.82-0.39-0.67c-0.39-1.03-0.36-1.65-0.31-2.81c0.05-1.21,0.26-2.4,0.51-3.59
		c0.34-1.63,1.02-3.17,0.34-4.79c-0.06-0.15-0.09-0.22-0.1-0.23c-0.02-0.06-0.06-0.14-0.1-0.25c-0.32-0.78-0.65-1.57-0.96-2.36
		c-3.65-9.1-6.69-18.34-8.81-27.84c1.53,1.28,3.11,2.51,4.74,3.65c5.87,4.1,13.2,5.3,20.17,3.56c4.99-1.25,8.97-5.11,9.9-9.77
		c3.17,1.68,6.81,2.29,10.73,1.66c5.43-0.88,10.9-4.15,11.86-9.99c0.85-5.2-1.96-9.75-4.36-14.14c-1.17-2.13-2.39-4.23-3.68-6.29
		c-0.08-2.71,0.27-5.53,1.96-7.75c1.45-1.9,3.65-2.91,5.95-3.37c2.66-0.53,5.26,0.03,7.8,0.84c2.68,0.85,5.7,2,7.7,4.06
		c0.04,0.04,0.07,0.07,0.11,0.1c0.05,0.06,0.09,0.12,0.14,0.18c1.22,1.46,2.17,2.7,3.27,4.33c3.69,5.5,6.48,11.66,6.59,18.38
		C117.88,86.05,116.48,92.71,114.73,99.12z"/>
</g>
</svg>
